<?xml version="1.0" standalone="no"?>
<!DOCTYPE svg PUBLIC "-//W3C//DTD SVG 20010904//EN"
 "http://www.w3.org/TR/2001/REC-SVG-20010904/DTD/svg10.dtd">
<svg version="1.0" xmlns="http://www.w3.org/2000/svg"
 width="3240.000000pt" height="3240.000000pt" viewBox="0 0 3240.000000 3240.000000"
 preserveAspectRatio="xMidYMid meet">
<metadata>
Created by potrace 1.10, written by Peter Selinger 2001-2011
</metadata>
<g transform="translate(0.000000,3240.000000) scale(0.100000,-0.100000)"
fill="#000000" stroke="none">
<path d="M6335 31895 c-55 -7 -130 -14 -167 -14 -36 -1 -102 -8 -145 -16 -43
-8 -96 -15 -118 -15 -22 0 -78 -7 -125 -16 -47 -8 -121 -22 -165 -30 -132 -24
-227 -45 -281 -60 -28 -8 -60 -14 -71 -14 -11 0 -39 -6 -64 -14 -24 -7 -71
-21 -104 -30 -98 -27 -168 -47 -200 -57 -16 -6 -59 -19 -95 -30 -36 -12 -81
-27 -100 -34 -41 -14 -187 -69 -245 -92 -22 -8 -58 -22 -80 -31 -22 -8 -68
-28 -103 -44 -34 -15 -64 -28 -67 -28 -18 0 -429 -203 -493 -244 -23 -14 -44
-26 -46 -26 -5 0 -253 -149 -304 -182 -15 -10 -34 -21 -42 -25 -15 -8 -125
-84 -264 -183 -34 -25 -91 -67 -126 -95 -151 -118 -226 -179 -235 -189 -5 -6
-57 -52 -115 -102 -174 -151 -394 -373 -550 -553 -30 -35 -60 -69 -67 -76 -26
-27 -113 -135 -173 -215 -35 -47 -66 -87 -70 -90 -3 -3 -31 -41 -62 -85 -31
-44 -73 -102 -92 -130 -31 -43 -99 -150 -131 -203 -6 -9 -27 -44 -48 -76 -21
-32 -43 -68 -48 -80 -5 -12 -18 -34 -28 -51 -11 -16 -31 -50 -44 -75 -14 -25
-34 -61 -46 -80 -11 -19 -24 -42 -27 -50 -7 -15 -54 -112 -101 -205 -14 -27
-31 -63 -39 -80 -13 -30 -51 -117 -83 -190 -17 -39 -29 -68 -66 -165 -9 -25
-23 -58 -30 -75 -24 -57 -62 -164 -75 -210 -9 -33 -27 -87 -43 -125 -5 -14
-13 -41 -18 -60 -4 -19 -15 -57 -23 -85 -35 -123 -59 -213 -66 -250 -9 -47
-26 -120 -46 -191 -8 -28 -14 -62 -14 -75 0 -13 -6 -55 -14 -94 -34 -160 -64
-383 -76 -555 -5 -69 -14 -177 -19 -240 -23 -246 -6 -746 34 -1030 9 -58 15
-121 15 -140 0 -19 6 -66 14 -105 8 -38 22 -115 31 -170 9 -55 23 -125 30
-155 7 -30 21 -91 30 -135 16 -76 31 -135 60 -235 7 -25 20 -74 30 -110 9 -36
23 -80 31 -98 8 -18 14 -39 14 -47 0 -8 6 -29 14 -47 7 -18 21 -58 31 -88 9
-30 23 -72 31 -92 8 -21 20 -55 28 -75 20 -56 76 -193 91 -228 7 -16 27 -60
44 -98 17 -37 31 -70 31 -73 0 -9 183 -372 208 -414 12 -19 26 -44 32 -55 18
-37 74 -132 135 -229 33 -53 65 -104 70 -114 41 -71 274 -395 320 -446 6 -6
26 -31 45 -56 219 -285 681 -747 970 -970 63 -49 78 -61 114 -91 17 -15 70
-54 119 -88 48 -33 124 -87 170 -119 45 -32 89 -61 97 -65 8 -4 27 -15 42 -25
67 -43 173 -109 206 -128 20 -11 63 -35 96 -53 32 -18 79 -45 105 -60 50 -28
261 -133 351 -174 30 -14 84 -38 120 -55 86 -39 137 -60 330 -133 131 -49 148
-55 260 -89 120 -37 171 -52 255 -75 122 -34 162 -45 235 -61 41 -8 100 -22
130 -29 83 -20 167 -35 245 -45 39 -5 86 -14 105 -20 19 -5 53 -10 75 -10 22
0 85 -7 140 -15 460 -68 1129 -58 1660 27 39 6 93 14 120 18 65 9 166 28 235
45 30 7 91 21 135 30 44 10 100 23 125 30 25 7 74 20 110 30 36 9 83 23 105
29 22 7 67 21 100 31 33 9 76 23 95 30 81 29 107 37 135 45 39 11 110 37 133
49 9 5 35 16 57 24 70 26 148 59 203 83 28 13 78 36 110 50 124 56 387 190
482 246 19 11 55 31 80 45 25 13 57 32 71 41 15 9 57 36 95 60 38 24 78 48 88
55 11 7 53 35 95 64 42 29 105 72 141 97 82 57 325 243 359 276 9 8 61 53 116
100 133 112 468 447 586 585 51 61 97 112 101 115 15 11 288 367 288 375 0 4
19 32 43 63 24 31 65 91 92 132 26 41 60 93 74 115 15 22 30 47 34 55 4 8 16
29 27 45 11 17 23 37 27 45 7 15 84 151 103 180 11 18 196 392 215 435 7 17
24 55 38 85 37 81 67 157 127 320 58 154 79 215 90 255 5 17 13 44 18 60 6 17
18 55 26 85 9 30 22 78 30 105 25 89 45 168 61 245 9 41 23 100 30 130 7 30
21 100 30 155 9 55 23 132 31 170 8 39 14 86 14 105 0 19 6 82 15 140 45 326
60 847 30 1120 -8 74 -15 164 -15 200 0 36 -5 85 -11 110 -6 25 -14 86 -19
135 -4 50 -14 117 -20 150 -6 33 -18 96 -26 140 -24 132 -44 227 -60 281 -8
28 -14 59 -14 70 0 10 -6 39 -14 64 -8 25 -21 70 -30 100 -8 30 -22 80 -31
110 -17 60 -110 346 -124 382 -5 13 -16 41 -24 63 -23 61 -77 196 -92 230 -7
17 -27 60 -44 98 -17 37 -31 70 -31 73 0 8 -188 384 -199 398 -5 6 -23 38 -42
71 -64 116 -74 134 -119 205 -25 39 -53 83 -62 98 -10 15 -21 34 -25 42 -7 14
-65 97 -183 264 -65 92 -204 270 -274 351 -34 38 -72 83 -86 99 -87 104 -336
358 -466 477 -189 172 -449 384 -600 489 -92 65 -203 140 -230 157 -208 129
-291 179 -339 203 -11 6 -36 20 -55 32 -42 25 -405 208 -414 208 -3 0 -36 14
-73 31 -100 45 -123 55 -170 73 -110 41 -129 49 -226 90 -21 9 -44 16 -52 16
-8 0 -29 6 -47 14 -43 18 -183 65 -228 76 -19 5 -57 16 -85 24 -123 35 -213
59 -250 66 -47 9 -120 26 -191 46 -28 8 -62 14 -75 14 -13 0 -55 6 -94 14
-157 33 -381 64 -550 76 -66 5 -158 13 -205 19 -115 15 -640 12 -765 -4z
m4494 -2315 c174 -55 319 -172 390 -317 12 -26 28 -57 33 -67 48 -90 66 -327
30 -393 -32 -59 -68 -78 -148 -78 -67 0 -73 2 -118 38 -58 48 -76 82 -76 144
-1 74 -36 294 -54 335 -22 52 -70 85 -154 104 -69 17 -74 17 -172 -4 -122 -26
-186 -56 -288 -131 -83 -62 -248 -230 -297 -302 -16 -24 -48 -69 -70 -99 -47
-65 -46 -63 -130 -205 -36 -60 -70 -117 -75 -125 -15 -24 -216 -430 -240 -485
-11 -27 -28 -65 -35 -83 -8 -18 -21 -47 -28 -65 -8 -17 -22 -52 -32 -77 -10
-25 -23 -58 -31 -75 -30 -70 -86 -212 -104 -265 -5 -14 -25 -70 -45 -125 -19
-55 -53 -152 -74 -215 -21 -63 -43 -126 -49 -140 -5 -14 -18 -52 -27 -85 -10
-33 -23 -76 -30 -95 -12 -35 -27 -82 -60 -195 -10 -33 -24 -78 -30 -100 -7
-22 -20 -67 -30 -100 -9 -33 -23 -78 -31 -100 -8 -23 -14 -49 -14 -60 0 -11
-6 -37 -14 -60 -8 -22 -21 -69 -31 -105 -9 -36 -22 -87 -30 -115 -7 -27 -20
-77 -28 -110 -8 -33 -20 -80 -27 -105 -6 -25 -15 -63 -19 -85 -4 -22 -13 -58
-19 -80 -6 -22 -18 -76 -27 -120 -9 -44 -23 -103 -31 -131 -8 -28 -14 -61 -14
-73 0 -12 -6 -50 -14 -84 -8 -34 -22 -107 -31 -162 -8 -55 -22 -135 -30 -179
-17 -95 -17 -95 92 -238 40 -53 73 -99 73 -102 0 -2 33 -53 72 -113 40 -59 81
-124 92 -143 10 -19 38 -65 62 -101 43 -67 51 -80 136 -237 47 -85 166 -326
194 -389 62 -141 120 -289 134 -338 5 -16 13 -43 18 -60 26 -75 66 -234 86
-340 18 -97 28 -362 17 -465 -24 -232 -125 -400 -288 -479 -57 -28 -71 -31
-166 -31 -111 0 -172 15 -264 66 -169 94 -338 289 -443 513 -23 47 -47 97 -54
111 -7 14 -21 52 -30 85 -10 33 -25 75 -32 93 -8 18 -14 41 -14 51 0 9 -6 37
-14 62 -16 52 -38 163 -62 314 -13 87 -17 179 -17 445 0 184 3 362 7 395 l7
60 -128 170 c-70 94 -175 230 -233 303 -144 182 -307 388 -430 542 -92 116
-299 390 -354 469 -27 39 -55 71 -62 71 -15 0 -34 -52 -34 -92 0 -17 -7 -57
-15 -91 -8 -34 -21 -98 -30 -142 -9 -44 -23 -101 -31 -126 -8 -26 -14 -57 -14
-69 0 -13 -7 -47 -15 -77 -8 -29 -21 -77 -29 -105 -46 -178 -68 -257 -91 -333
-6 -22 -20 -67 -30 -100 -9 -33 -22 -71 -27 -85 -6 -14 -14 -38 -18 -55 -5
-16 -18 -55 -30 -85 -12 -30 -25 -68 -30 -85 -5 -16 -18 -55 -30 -85 -12 -30
-24 -64 -27 -75 -3 -11 -9 -24 -13 -30 -4 -5 -24 -53 -45 -105 -47 -120 -190
-424 -236 -500 -54 -92 -129 -223 -129 -226 0 -2 -20 -33 -45 -70 -25 -36 -45
-67 -45 -70 0 -4 -153 -213 -205 -279 -165 -211 -422 -444 -670 -606 -92 -61
-322 -177 -395 -200 -14 -4 -50 -17 -80 -29 -30 -12 -71 -26 -90 -30 -19 -5
-71 -18 -115 -30 -44 -13 -105 -26 -135 -30 -30 -5 -79 -13 -109 -19 -87 -18
-545 -14 -638 5 -108 21 -192 43 -231 60 -18 8 -40 14 -48 14 -21 0 -253 114
-313 153 -178 118 -331 269 -456 452 -12 17 -24 37 -28 45 -4 8 -16 29 -26 45
-53 83 -135 270 -165 377 -72 254 -79 305 -73 579 2 133 10 260 17 294 19 90
40 166 56 203 8 18 14 39 14 47 0 17 17 56 74 174 93 194 231 362 403 492 107
81 107 80 208 131 99 50 196 87 290 111 33 9 89 23 125 33 52 13 113 17 301
17 241 0 323 -9 417 -49 18 -8 37 -14 43 -14 25 0 209 -97 264 -139 192 -147
305 -315 378 -566 29 -98 30 -455 2 -555 -24 -88 -39 -111 -95 -149 -42 -28
-56 -33 -114 -33 -91 0 -138 30 -176 115 -24 51 -26 162 -5 257 22 100 20 359
-4 457 -33 140 -97 252 -188 329 -136 116 -320 171 -541 161 -472 -19 -794
-195 -1003 -547 -25 -41 -53 -95 -63 -120 -10 -25 -24 -58 -31 -75 -16 -39
-39 -119 -62 -220 -26 -117 -26 -563 0 -680 86 -376 190 -586 393 -791 146
-148 310 -245 519 -307 160 -48 191 -52 455 -52 304 0 401 14 625 92 39 14 84
28 100 32 17 4 39 13 50 19 11 5 67 34 125 62 151 75 177 91 335 209 99 74
321 288 401 386 65 80 194 253 194 260 0 4 14 24 30 45 17 21 30 40 30 43 0 4
12 23 26 44 14 21 30 47 35 58 5 11 18 34 29 50 56 88 195 368 250 505 12 30
25 62 29 70 14 27 97 243 120 310 55 163 81 244 96 295 10 33 24 78 31 100 6
22 20 69 29 105 9 36 23 83 31 105 8 23 14 49 14 59 0 11 6 42 14 70 21 74 43
160 61 246 9 41 23 102 30 135 24 107 66 335 90 480 9 55 21 123 26 151 10 53
2 83 -41 149 -11 17 -23 37 -27 45 -3 8 -18 33 -32 55 -14 22 -30 48 -36 57
-5 10 -57 95 -114 190 -58 95 -111 184 -119 198 -7 14 -27 48 -43 75 -16 28
-37 64 -45 80 -8 17 -30 57 -48 90 -109 196 -307 610 -359 750 -8 22 -29 73
-46 114 -17 40 -31 80 -31 87 0 7 -6 28 -14 46 -8 18 -22 60 -31 93 -10 33
-23 78 -30 100 -13 40 -31 124 -60 268 -23 118 -21 431 4 534 10 43 23 89 29
103 38 94 50 120 77 160 68 103 207 217 339 280 145 69 434 119 605 106 41 -3
85 -13 97 -21 13 -8 28 -15 33 -15 33 0 150 -99 205 -174 33 -45 126 -223 126
-242 0 -7 6 -28 14 -46 24 -56 64 -211 76 -293 4 -27 13 -84 19 -125 71 -481
46 -1256 -60 -1793 -17 -90 -19 -85 94 -272 7 -11 14 -22 17 -25 11 -10 64
-95 76 -120 4 -8 19 -31 33 -50 14 -19 31 -43 36 -52 11 -18 75 -111 171 -248
33 -47 105 -146 160 -220 55 -74 121 -164 147 -200 60 -84 129 -175 170 -224
33 -40 56 -72 142 -195 46 -66 67 -82 78 -63 3 4 10 43 17 87 12 82 30 181 55
295 7 36 21 101 30 145 9 44 23 102 31 129 8 26 14 55 14 64 0 8 6 38 14 66 8
28 22 80 31 116 16 62 25 96 61 228 8 31 20 71 26 87 5 17 14 48 18 70 4 22
13 54 18 70 6 17 19 57 28 90 27 93 137 434 179 555 21 62 36 103 60 175 13
39 34 95 45 125 12 30 26 69 31 87 5 18 14 35 19 38 6 4 10 13 10 22 0 8 6 29
14 46 7 18 28 68 46 112 18 44 39 96 48 115 8 19 21 51 29 70 52 123 87 199
197 420 53 107 105 209 116 225 19 31 25 42 74 130 15 28 36 64 47 80 10 17
22 37 26 45 7 15 43 69 138 205 173 248 471 519 622 568 10 3 50 17 88 31 62
21 87 24 215 25 118 1 157 -3 209 -19z m-3666 -4937 c15 -17 39 -75 57 -138 8
-29 18 -55 60 -165 12 -30 25 -67 30 -81 4 -14 12 -34 17 -45 6 -10 32 -63 59
-117 26 -53 58 -107 70 -118 28 -26 56 -21 64 10 6 28 19 35 38 22 11 -7 11
-14 -1 -43 -12 -28 -23 -37 -53 -45 -57 -14 -99 3 -145 56 -48 55 -57 72 -130
229 -22 45 -34 50 -88 31 -22 -8 -33 -19 -36 -37 -19 -91 -61 -196 -98 -245
-47 -61 -96 -87 -165 -87 -63 0 -92 18 -107 68 -12 40 4 108 33 141 45 51 159
69 150 24 -2 -14 -15 -19 -53 -21 -68 -4 -95 -30 -95 -91 0 -61 28 -91 86 -91
64 0 120 62 166 185 21 54 37 128 32 137 -8 12 -69 9 -82 -4 -15 -15 -16 -3
-2 23 6 10 21 19 34 19 13 0 33 8 44 18 18 15 23 40 37 187 9 94 18 176 20
183 6 18 39 15 58 -5z"/>
<path d="M6425 29252 c-76 -18 -120 -41 -177 -91 -74 -65 -114 -193 -104 -331
7 -88 20 -176 37 -245 6 -22 14 -56 19 -75 4 -19 13 -48 19 -65 6 -16 19 -57
30 -90 11 -34 24 -72 29 -85 5 -14 18 -45 27 -70 10 -25 23 -58 31 -75 40 -92
65 -147 93 -208 18 -38 36 -78 41 -90 6 -12 14 -29 18 -37 5 -8 13 -24 19 -35
9 -19 27 -55 71 -140 11 -22 29 -56 40 -75 12 -19 32 -57 47 -85 14 -27 30
-57 35 -65 13 -20 61 -105 100 -176 63 -115 79 -109 90 37 4 57 13 154 19 214
30 291 28 973 -4 1185 -26 171 -63 301 -122 427 -29 61 -130 155 -190 176 -60
20 -76 20 -168 -1z"/>
<path d="M8393 23368 c4 -205 10 -266 44 -428 21 -104 58 -232 90 -315 8 -22
22 -58 31 -80 17 -45 48 -112 62 -135 5 -8 32 -53 59 -100 27 -47 58 -94 68
-105 10 -11 26 -32 36 -47 25 -39 144 -136 196 -159 62 -27 88 -24 127 15 34
34 34 35 34 122 -1 51 -7 106 -15 129 -8 22 -15 48 -15 57 0 10 -6 32 -14 50
-8 18 -22 53 -31 78 -28 74 -39 100 -96 213 -30 59 -62 124 -72 145 -61 122
-314 528 -441 705 -26 37 -52 67 -58 67 -6 0 -8 -77 -5 -212z"/>
<path d="M7137 24433 c-3 -4 -7 -37 -8 -73 l-4 -65 33 -3 c38 -4 40 7 13 86
-20 57 -26 68 -34 55z"/>
</g>
</svg>
